<svg viewBox="0 0 512 512" xmlns="http://www.w3.org/2000/svg">
  <path d="M463.425 174h-17v-59c0-4.398-1.931-8.575-5.281-11.426a14.996 14.996 0 00-12.125-3.38l-80 13A15 15 0 00336.425 128v46H227.639L330.71 70.929a15 15 0 000-21.212L285.455 4.393c-5.857-5.857-15.355-5.857-21.213 0l-62.932 63-34.648-34.648c-5.858-5.859-15.356-5.857-21.213 0L66.253 111.94c-5.858 5.857-5.858 15.355 0 21.213l34.648 34.648-62.933 62.933a15 15 0 000 21.212l45.255 45.255c2.929 2.929 6.768 4.394 10.606 4.394s7.678-1.465 10.606-4.394l71.989-71.989V465c0 25.916 21.084 47 47 47h208c25.916 0 47-21.084 47-47V189c.001-8.284-6.715-15-14.999-15zM98.073 122.547l57.982-57.982 24.042 24.042-57.983 57.983zM93.83 265.383l-24.042-24.042L274.849 36.212l24.042 24.11zm272.595-124.624l50-8.125V174h-50zm82 324.241c0 9.374-7.626 17-17 17h-208c-9.374 0-17-7.626-17-17V204h242z" />
  <path d="M263.425 445.683c8.284 0 15-6.716 15-15v-175c0-8.284-6.716-15-15-15s-15 6.716-15 15v175c0 8.284 6.716 15 15 15zM327.425 445.317c8.284 0 15-6.716 15-15v-175c0-8.284-6.716-15-15-15s-15 6.716-15 15v175c0 8.285 6.716 15 15 15zM391.425 445.683c8.284 0 15-6.716 15-15v-175c0-8.284-6.716-15-15-15s-15 6.716-15 15v175c0 8.284 6.716 15 15 15z" />
</svg>